<svg width="66" height="69" viewBox="0 0 66 69" fill="none" xmlns="http://www.w3.org/2000/svg">
<g clip-path="url(#clip0_146_1023)">
<path d="M33.015 24C37.3433 24 41.6724 24 46.0022 24C46.9136 24 47.6092 24.4762 47.879 25.2692C47.9505 25.4803 47.9411 25.6211 47.7159 25.7665C43.4604 28.5574 39.2103 31.3546 34.9657 34.158C34.3698 34.5497 33.7716 34.938 33.1816 35.338C33.1316 35.3817 33.0674 35.4058 33.001 35.4058C32.9345 35.4058 32.8703 35.3817 32.8203 35.338C27.9548 32.1264 23.0866 28.9202 18.2156 25.7196C18.1561 25.6907 18.1104 25.6395 18.0885 25.5771C18.0665 25.5148 18.07 25.4462 18.0983 25.3865C18.195 25.0206 18.4014 24.693 18.6897 24.4479C18.978 24.2028 19.3345 24.0518 19.7112 24.0152C19.8472 24.0035 19.9845 24.0047 20.1205 24.0047L33.015 24Z" fill="white"/>
<path d="M33.0049 44.6455H20.0189C19.0993 44.6455 18.4459 44.2115 18.1421 43.4221C18.0506 43.1875 18.0553 43.0432 18.311 42.8825C22.0731 40.5194 25.8267 38.1453 29.5716 35.7602C29.6441 35.7006 29.7356 35.6689 29.8295 35.6711C29.9233 35.6732 30.0133 35.709 30.083 35.7719C30.8173 36.2728 31.5703 36.7455 32.3023 37.2475C32.7714 37.5701 33.209 37.5771 33.6817 37.2534C34.4394 36.7361 35.2136 36.2435 35.976 35.7285C36.0303 35.6831 36.0988 35.6582 36.1695 35.6582C36.2403 35.6582 36.3088 35.6831 36.3631 35.7285C40.1549 38.1339 43.9503 40.535 47.7492 42.9318C47.7837 42.9463 47.815 42.9676 47.8411 42.9944C47.8673 43.0212 47.8878 43.053 47.9015 43.0879C47.9151 43.1228 47.9217 43.1601 47.9207 43.1975C47.9197 43.235 47.9112 43.2718 47.8958 43.306C47.7906 43.6643 47.5804 43.9828 47.2922 44.2204C47.004 44.4579 46.6512 44.6036 46.2794 44.6385C46.1434 44.6502 46.0061 44.6478 45.87 44.6478L33.0049 44.6455Z" fill="white"/>
<path d="M18 40.8683V27.8154L28.1099 34.4768L18 40.8683Z" fill="white"/>
<path d="M47.9993 27.8154V40.8671L37.8906 34.4768L47.9993 27.8154Z" fill="white"/>
</g>
<defs>
<clipPath id="clip0_146_1023">
<rect width="30" height="20.6455" fill="white" transform="translate(18 24)"/>
</clipPath>
</defs>
</svg>
