<svg width="66" height="67" viewBox="0 0 66 67" fill="none" xmlns="http://www.w3.org/2000/svg">
<path d="M18 26.1381C18.0862 25.887 18.1885 25.6416 18.3061 25.4035C19.1611 23.8912 20.1984 22.4893 21.3945 21.2294C22.0972 20.4902 22.8405 19.7908 23.6209 19.1342C24.7016 18.2009 25.7798 18.7594 26.3358 19.519C27.7351 21.4355 29.0394 23.4158 30.0364 25.5809C30.1779 25.9061 30.2985 26.2399 30.3975 26.5804C30.4937 26.8478 30.5128 27.1369 30.4525 27.4146C30.3921 27.6923 30.2549 27.9475 30.0564 28.1509C29.5779 28.6506 29.0569 29.1166 28.5284 29.5739C27.8338 30.1823 27.8163 30.1773 28.1761 31.0182C29.737 34.6663 32.3669 37.2121 36.0658 38.6555C36.3869 38.7805 36.5768 38.7517 36.7992 38.4719C37.2378 37.9184 37.715 37.3937 38.1923 36.8727C38.8257 36.1818 39.5903 35.9981 40.4574 36.373C41.1058 36.6516 41.7755 36.9064 42.3739 37.2725C43.9444 38.2308 45.4861 39.2365 47.029 40.2385C47.502 40.5555 47.8335 41.0437 47.9536 41.6003C47.9978 41.7505 48.0106 41.9082 47.9913 42.0636C47.9719 42.219 47.9208 42.3688 47.8411 42.5036C47.6547 42.8398 47.4394 43.1591 47.1977 43.4581C45.5398 45.3671 43.5745 46.9151 41.4506 48.2619C40.7172 48.7254 39.9901 48.6292 39.2292 48.4793C36.5456 47.9508 34.1068 46.8189 31.8355 45.3459C27.0679 42.2625 23.2286 38.282 20.4275 33.3307C19.3156 31.3655 18.4848 29.2853 18.1162 27.0414C18.07 26.7728 18.0462 26.5129 18 26.1381Z" fill="white"/>
</svg>
