<svg width="70" height="67" viewBox="0 0 70 67" fill="none" xmlns="http://www.w3.org/2000/svg">
<g clip-path="url(#clip0_146_1039)">
<path d="M45.6952 28.5297C45.7177 29.9854 45.4865 31.4339 45.012 32.8102C44.2246 35.2077 43.0411 37.4142 41.7146 39.5468C39.9298 42.3811 37.9262 45.0715 35.7221 47.5935C35.1362 48.2731 34.5503 48.2731 33.9574 47.5935C31.0584 44.214 28.4125 40.6577 26.3408 36.6959C25.4128 34.9206 24.596 33.0915 24.2222 31.11C23.4711 27.1329 24.596 23.7371 27.5232 20.96C29.234 19.3371 31.3057 18.4184 33.6445 18.17C36.39 17.877 38.9176 18.5309 41.1662 20.1468C43.0685 21.4969 44.4787 23.4304 45.1831 25.6542C45.5253 26.69 45.7022 27.7634 45.6952 28.5297ZM34.8538 34.4285C36.3055 34.4207 37.6946 33.8369 38.716 32.8052C39.7373 31.7736 40.3071 30.3786 40.3003 28.9269C40.2733 25.9096 37.8067 23.4641 34.8175 23.4922C33.371 23.5037 31.9879 24.0871 30.9703 25.1151C29.9526 26.1431 29.3831 27.532 29.3863 28.9785C29.4015 31.9923 31.8634 34.4425 34.8538 34.4285Z" fill="white"/>
</g>
<defs>
<clipPath id="clip0_146_1039">
<rect width="21.6967" height="30" fill="white" transform="translate(24 18.103)"/>
</clipPath>
</defs>
</svg>
