<svg width="293" height="140" viewBox="0 0 293 140" fill="none" xmlns="http://www.w3.org/2000/svg">
<path d="M178.092 36.6531C179.852 35.9231 181.292 34.8631 182.742 33.6731C185.032 31.7831 187.542 30.1331 190.082 28.5931C191.942 27.4731 193.932 26.5731 195.992 25.7731C198.152 24.9231 200.252 24.8031 202.452 24.7931C203.632 24.7931 204.602 25.2131 205.562 25.9431C207.512 27.4331 208.652 29.3431 209.202 31.6831C209.842 34.4231 210.372 37.1731 210.152 40.0131C210.072 41.1331 209.092 44.6831 208.542 45.5131C206.402 48.7331 203.382 50.1131 199.592 49.5331C196.162 49.0031 192.922 47.8231 189.832 46.2031C187.012 44.7131 184.082 43.4331 181.222 42.0131C179.792 41.3031 178.402 40.5231 177.142 39.8431C175.382 41.2331 173.712 42.5131 172.072 43.8431C171.362 44.4231 170.742 45.1131 170.032 45.7031C168.652 46.8531 167.242 47.9631 165.862 49.1131C164.122 50.5631 162.402 52.0431 160.652 53.4731C157.662 55.9331 154.672 58.3831 151.662 60.8031C148.442 63.3931 145.232 65.9931 141.942 68.4931C139.712 70.1831 137.402 71.7731 135.052 73.3031C131.932 75.3431 128.812 77.4131 125.542 79.2031C123.292 80.4431 120.962 81.5531 118.422 82.2831C116.142 82.9331 113.912 83.4131 111.552 83.4931C108.162 83.6131 105.072 82.6131 102.252 80.8531C101.212 80.2031 100.402 79.1531 99.5619 78.2231C97.4819 75.9231 95.8619 73.3631 95.0319 70.3331C94.4319 68.1531 93.6719 66.0231 93.0519 63.8431C92.8319 63.0831 92.8819 62.2531 92.7519 61.4631C92.3619 59.1631 91.9519 56.8731 91.5419 54.5731C91.5119 54.3731 91.4219 54.1831 91.4219 53.9831C91.4719 48.1531 91.5319 42.3331 91.6019 36.5031C91.6119 35.4331 91.6619 34.3631 91.6719 33.2831C91.6919 31.7431 91.7419 30.2231 92.3019 28.7331C92.6019 27.9431 92.4719 27.0031 92.6919 26.1731C93.3619 23.7331 94.1119 21.3231 94.8219 18.8931C94.8819 18.7031 94.8719 18.5031 94.9219 18.1631C93.5919 18.0531 92.7419 18.9631 92.1419 19.7431C89.6919 22.9031 86.7919 25.7031 84.6719 29.1231C84.1619 29.9531 83.4119 30.6331 82.7419 31.4231C81.9319 30.9731 82.0519 30.3531 82.2319 29.6831C82.9919 26.7931 83.7019 23.8831 84.5019 21.0031C84.8619 19.7231 85.3619 18.4831 85.8919 17.2631C86.5319 15.8031 87.2719 14.3831 87.9619 12.9531C88.0819 12.7131 88.1919 12.4631 88.3519 12.2531C89.7019 10.6031 90.9619 8.86309 92.4519 7.34309C93.8919 5.88309 95.5019 4.55309 97.1719 3.36309C98.0619 2.73309 99.2419 2.51309 100.312 2.13309C101.182 1.82309 102.062 1.52309 102.962 1.28309C103.592 1.11309 104.262 0.963092 104.912 0.953092C106.862 0.923092 108.812 0.883092 110.752 1.02309C111.792 1.09309 112.802 1.53309 113.832 1.77309C116.102 2.31309 118.382 2.78309 120.642 3.38309C121.722 3.67309 122.772 4.13309 123.792 4.61309C127.282 6.25309 130.882 7.62309 134.172 9.69309C137.042 11.5031 140.012 13.1531 142.962 14.8231C146.152 16.6331 149.432 18.2731 152.562 20.1831C156.372 22.5131 160.042 25.0731 163.812 27.4731C167.692 29.9431 171.612 32.3331 175.502 34.7831C176.402 35.3531 177.242 36.0231 178.082 36.6231L178.092 36.6531ZM175.432 39.0731C172.192 37.0531 169.172 35.1031 166.092 33.2531C164.162 32.0831 162.142 31.0631 160.182 29.9431C156.712 27.9631 153.272 25.9431 149.792 23.9831C146.832 22.3131 143.762 20.8431 140.872 19.0531C138.402 17.5231 135.692 16.6131 133.042 15.5331C130.642 14.5531 128.152 13.7731 125.772 12.7531C123.402 11.7431 120.842 11.6931 118.392 11.1331C117.052 10.8231 115.582 11.0731 114.182 11.0331C110.732 10.9431 107.772 12.2431 105.212 14.4031C104.172 15.2831 103.472 16.5531 102.542 17.5831C100.482 19.8931 99.5119 22.6631 99.0219 25.6431C98.9419 26.1031 98.8019 26.5431 98.7119 27.0031C98.1319 30.2831 97.4919 33.5531 97.0219 36.8531C96.7519 38.7631 96.6819 40.7131 96.6719 42.6531C96.6119 50.0731 96.4019 57.5131 98.0719 64.8231C98.2919 65.7931 98.4319 66.8031 98.8019 67.7131C99.5819 69.6131 100.592 71.4331 101.312 73.3531C102.112 75.4831 103.342 77.1331 105.282 78.3831C106.962 79.4631 108.742 80.0531 110.662 80.2931C113.392 80.6431 115.912 79.5731 118.522 79.0631C118.652 79.0331 118.782 78.9931 118.902 78.9431C121.332 77.8731 123.772 76.8331 126.172 75.7131C127.922 74.8931 129.702 74.1031 131.312 73.0631C134.222 71.1831 137.022 69.1431 139.842 67.1331C142.722 65.0831 145.622 63.0631 148.402 60.8831C153.592 56.8031 158.692 52.6231 163.822 48.4831C167.652 45.3931 171.482 42.2831 175.432 39.0831V39.0731ZM180.162 37.8831C182.832 39.3131 185.312 41.0831 188.182 42.2531C190.982 43.4031 193.552 45.0431 196.502 46.0031C198.892 46.7831 201.202 46.9331 203.592 46.7931C204.192 46.7531 204.882 46.4131 205.332 46.0031C206.922 44.5331 207.422 42.4931 207.652 40.4731C207.852 38.7531 207.792 36.9931 207.682 35.2631C207.562 33.3331 207.252 31.4331 206.222 29.7131C205.102 27.8231 203.662 26.6531 201.292 26.6631C199.592 26.6731 198.072 27.1031 196.482 27.5931C194.182 28.2931 191.952 29.2931 190.112 30.6231C187.742 32.3431 185.042 33.4531 182.742 35.2031C181.772 35.9431 180.392 36.3231 180.152 37.8831H180.162Z" fill="white"/>
<path d="M203.762 124.483C202.772 124.483 202.042 124.483 201.322 124.483C193.472 124.483 185.612 124.483 177.762 124.483C177.162 124.483 176.542 124.523 175.952 124.423C174.852 124.253 173.972 123.283 174.032 122.413C174.092 121.463 175.102 120.323 176.062 120.203C176.662 120.123 177.272 120.163 177.872 120.163C185.792 120.163 193.712 120.163 201.632 120.163C202.232 120.163 202.822 120.163 203.662 120.163C203.842 118.063 204.032 116.043 203.612 114.113C203.222 112.323 201.542 111.543 199.862 111.273C198.082 110.993 196.262 110.933 194.462 110.923C188.622 110.883 182.782 110.893 176.942 110.923C175.962 110.923 175.102 110.813 174.432 109.983C173.652 109.013 173.662 107.913 174.632 107.183C175.492 106.543 176.432 106.043 177.582 106.053C183.492 106.073 189.392 106.053 195.302 106.063C195.572 106.063 195.892 106.003 196.092 106.133C197.632 107.053 199.352 106.753 201.002 106.873C204.232 107.103 206.622 108.783 208.582 111.193C208.782 111.433 208.902 111.793 208.932 112.103C209.082 113.563 209.272 115.033 209.292 116.493C209.342 120.853 209.322 125.213 209.292 129.573C209.292 131.243 209.172 132.913 208.072 134.323C206.762 135.993 205.172 137.133 203.102 137.843C200.682 138.673 198.252 138.693 195.792 138.683C186.462 138.673 177.132 138.763 167.812 138.553C164.242 138.473 160.832 137.363 158.482 134.303C157.632 133.193 156.952 131.983 156.952 130.493C156.952 123.323 157.002 116.143 156.912 108.973C156.892 107.423 157.862 106.833 158.842 106.233C159.792 105.653 161.902 106.863 162.152 108.073C162.302 108.783 162.282 109.543 162.282 110.273C162.282 116.103 162.252 121.943 162.312 127.773C162.322 128.883 162.672 129.993 162.882 131.103C163.142 132.473 164.192 133.083 165.372 133.403C166.332 133.673 167.352 133.803 168.342 133.813C177.872 133.843 187.402 133.843 196.932 133.823C198.812 133.823 200.652 133.623 202.272 132.503C203.222 131.843 203.802 131.073 203.762 129.853C203.712 128.183 203.752 126.513 203.752 124.503L203.762 124.483Z" fill="white"/>
<path d="M98.6119 114.933C96.5219 117.643 94.6219 120.123 92.7019 122.593C90.1219 125.903 87.5419 129.213 84.9519 132.513C83.6419 134.183 82.2919 135.833 80.9819 137.503C79.9419 138.833 78.0419 139.513 75.7619 138.143C74.6519 137.483 73.8319 136.573 73.0619 135.523C71.2719 133.043 69.3219 130.683 67.4319 128.273C64.3919 124.393 61.3519 120.513 58.3219 116.623C57.9619 116.153 57.6719 115.623 57.1319 114.793C56.9919 116.093 56.7919 117.053 56.7919 118.023C56.7619 123.723 56.7819 129.423 56.7719 135.113C56.7719 135.713 56.7919 136.323 56.7219 136.923C56.6019 137.933 56.0419 138.483 55.0619 138.653C54.8019 138.693 54.5319 138.693 54.2619 138.693C52.2319 138.733 51.7719 138.343 51.5519 136.333C51.5019 135.873 51.5319 135.393 51.5319 134.923C51.5319 126.943 51.5319 118.973 51.5319 110.993C51.5319 110.453 51.5119 109.913 51.5719 109.383C51.7719 107.613 52.8119 106.373 54.5519 106.173C55.9819 106.003 57.0919 106.863 57.9819 107.923C58.8819 108.993 59.6919 110.133 60.5619 111.233C64.2919 115.933 68.0319 120.623 71.7719 125.313C73.8319 127.903 75.8919 130.503 77.9819 133.143C79.5519 132.223 80.4019 130.573 81.5119 129.193C83.3019 126.973 84.9319 124.603 86.6419 122.323C88.6019 119.713 90.5619 117.103 92.5719 114.523C94.5419 112.003 96.4919 109.473 98.6119 107.083C99.9319 105.593 101.442 105.613 103.042 106.863C103.422 107.163 103.752 107.653 103.872 108.123C104.082 108.953 104.182 109.833 104.192 110.703C104.212 118.883 104.202 127.063 104.202 135.233C104.202 135.703 104.222 136.183 104.142 136.633C103.882 138.213 102.732 139.093 101.192 138.923C99.8319 138.783 98.9919 137.853 98.9819 136.313C98.9519 130.213 98.9819 124.113 98.9419 118.013C98.9419 117.043 98.7419 116.083 98.6119 114.933Z" fill="white"/>
<path d="M290.912 109.013C290.292 110.873 288.822 111.213 287.092 111.213C280.512 111.193 273.932 111.223 267.362 111.183C266.052 111.183 264.882 111.453 263.702 112.033C262.802 112.473 262.302 113.113 262.222 113.993C262.102 115.253 262.042 116.553 262.182 117.803C262.362 119.323 263.792 119.743 264.952 120.033C266.362 120.383 267.872 120.403 269.342 120.423C273.432 120.483 277.532 120.473 281.622 120.493C282.702 120.493 283.752 120.513 284.742 121.073C285.132 121.293 285.632 121.393 286.092 121.423C287.912 121.543 289.192 122.553 290.262 123.893C290.702 124.443 291.042 125.113 291.312 125.773C291.622 126.503 291.812 127.283 292.062 128.043C292.122 128.233 292.212 128.413 292.252 128.613C292.602 130.263 291.252 134.623 290.042 135.843C288.392 137.513 286.392 138.483 284.072 138.653C281.272 138.863 278.452 139.013 275.642 139.043C270.542 139.103 265.442 139.063 260.342 139.063C259.802 139.063 259.262 139.073 258.732 139.023C257.382 138.903 256.262 137.893 256.252 136.823C256.242 135.873 257.562 134.703 258.762 134.643C259.302 134.613 259.832 134.633 260.372 134.633C267.082 134.633 273.792 134.603 280.512 134.653C282.042 134.663 283.392 134.263 284.732 133.583C285.692 133.103 286.172 132.363 286.232 131.383C286.302 130.183 286.272 128.973 286.212 127.763C286.152 126.613 285.292 125.863 284.402 125.543C282.982 125.033 281.572 124.393 279.952 124.463C277.272 124.563 274.582 124.523 271.902 124.463C269.292 124.413 266.632 124.563 264.092 124.073C261.612 123.593 258.802 123.063 257.502 120.493C256.482 118.483 255.342 116.313 256.542 113.893C256.712 113.543 256.842 113.133 256.882 112.753C257.072 110.293 258.792 109.083 260.732 108.083C262.992 106.923 265.472 106.803 267.942 106.793C274.522 106.753 281.102 106.793 287.672 106.763C289.362 106.763 290.562 107.233 290.912 109.023V109.013Z" fill="white"/>
<path d="M227.922 139.073C224.502 139.073 221.082 139.073 217.652 139.073C217.052 139.073 216.442 139.083 215.842 139.013C214.852 138.893 213.922 137.883 213.912 137.003C213.912 136.213 214.852 134.923 215.652 134.763C216.232 134.643 216.852 134.653 217.452 134.653C224.362 134.653 231.272 134.623 238.192 134.663C239.722 134.663 241.072 134.293 242.422 133.613C243.462 133.093 243.922 132.303 243.982 131.243C244.032 130.243 243.952 129.233 243.982 128.233C244.032 126.893 243.192 125.973 242.172 125.583C240.772 125.043 239.352 124.413 237.732 124.483C235.252 124.593 232.762 124.543 230.282 124.483C227.472 124.423 224.612 124.573 221.872 124.083C219.472 123.653 216.752 123.173 215.392 120.693C214.222 118.563 213.042 116.333 214.332 113.773C214.482 113.483 214.572 113.143 214.602 112.813C214.802 110.273 216.552 109.063 218.582 108.053C220.932 106.873 223.472 106.813 226.002 106.803C232.312 106.763 238.622 106.783 244.922 106.793C245.462 106.793 246.002 106.793 246.522 106.883C247.562 107.063 248.122 107.763 248.202 108.843C248.262 109.693 247.592 110.743 246.722 110.943C245.952 111.123 245.142 111.203 244.342 111.203C237.832 111.223 231.322 111.213 224.812 111.203C223.602 111.203 222.442 111.303 221.312 111.903C220.352 112.413 219.922 113.123 219.842 114.113C219.782 114.913 219.802 115.723 219.812 116.523C219.812 119.033 220.662 120.003 223.212 120.123C227.022 120.303 230.842 120.353 234.662 120.453C235.532 120.473 236.422 120.553 237.272 120.443C240.172 120.053 242.842 121.143 245.502 121.883C247.072 122.323 248.382 123.773 248.962 125.533C249.252 126.423 249.552 127.303 249.832 128.183C249.912 128.433 250.012 128.713 249.992 128.963C249.672 132.113 249.222 135.293 246.232 137.113C244.182 138.363 241.832 138.953 239.382 138.963C238.512 138.963 237.642 139.053 236.772 139.053C233.822 139.063 230.862 139.053 227.912 139.053L227.922 139.073Z" fill="white"/>
<path d="M139.332 111.273V113.783C139.332 120.753 139.332 127.733 139.332 134.703C139.332 135.503 139.322 136.323 139.172 137.103C139.012 137.923 138.612 138.643 137.622 138.703C136.632 138.763 135.642 138.913 134.902 137.933C134.262 137.083 134.052 136.183 134.052 135.133C134.082 128.023 134.062 120.913 134.072 113.803C134.072 110.843 134.272 110.863 131.062 110.883C127.972 110.903 124.882 110.913 121.802 110.863C120.052 110.833 119.392 110.053 119.472 108.343C119.502 107.593 119.752 107.093 120.502 106.813C121.632 106.393 122.712 105.993 123.982 106.003C132.572 106.053 141.162 106.043 149.752 106.013C150.782 106.013 151.702 106.163 152.612 106.713C153.702 107.383 154.062 108.013 153.782 109.323C153.562 110.343 152.992 110.843 151.762 110.863C148.612 110.903 145.452 110.863 142.302 110.903C141.382 110.913 140.472 111.123 139.342 111.263L139.332 111.273Z" fill="white"/>
<path d="M22.1919 138.593C18.5719 138.593 14.9419 138.623 11.3219 138.573C10.5419 138.563 9.75189 138.343 9.00189 138.103C7.60189 137.663 6.20189 137.213 4.86189 136.623C2.39189 135.543 1.05189 133.573 0.781895 130.903C0.701895 130.103 0.691895 129.293 0.691895 128.493C0.691895 122.393 0.691895 116.293 0.691895 110.183C0.691895 109.583 0.691895 108.973 0.761895 108.373C0.891895 107.383 2.32189 106.113 3.23189 106.133C4.27189 106.153 5.85189 107.443 5.98189 108.433C6.06189 109.023 6.03189 109.633 6.03189 110.243C6.03189 116.073 6.03189 121.913 6.03189 127.743C6.03189 128.083 6.05189 128.413 6.03189 128.753C5.81189 132.203 7.63189 133.223 10.6919 133.753C11.3419 133.863 12.0319 133.803 12.7019 133.803C19.0819 133.803 25.4519 133.823 31.8319 133.783C33.0219 133.783 34.0719 134.023 35.0819 134.633C35.9119 135.133 36.3619 135.803 36.2019 136.793C36.0619 137.653 35.0519 138.553 34.0819 138.653C33.6119 138.703 33.1419 138.673 32.6719 138.673C29.1819 138.673 25.6919 138.673 22.2019 138.673C22.2019 138.653 22.2019 138.623 22.2019 138.603L22.1919 138.593Z" fill="white"/>
<path d="M39.8219 122.243C39.8219 117.963 39.8219 113.683 39.8219 109.393C39.8219 107.563 40.6519 106.533 42.4119 106.163C43.4719 105.943 44.2619 106.503 44.8019 107.283C45.4819 108.273 45.8519 109.373 45.8419 110.663C45.7919 118.553 45.8119 126.453 45.8319 134.343C45.8319 135.373 45.6619 136.313 45.1519 137.223C44.3119 138.733 43.8919 138.993 42.3219 138.743C41.0119 138.533 40.0119 137.573 39.8419 136.293C39.7819 135.833 39.8219 135.353 39.8219 134.893C39.8219 130.673 39.8219 126.463 39.8219 122.243Z" fill="white"/>
<path d="M115.972 122.723C115.972 127.143 115.992 131.563 115.972 135.983C115.952 138.383 114.402 139.433 112.082 138.763C111.322 138.543 110.922 138.103 110.782 137.413C110.672 136.823 110.652 136.213 110.652 135.613C110.652 126.973 110.652 118.343 110.652 109.703C110.652 109.373 110.652 109.033 110.682 108.703C110.812 107.353 112.392 105.953 113.652 106.073C114.762 106.173 115.972 107.583 115.982 108.873C116.002 113.493 115.982 118.113 115.982 122.733L115.972 122.723Z" fill="white"/>
</svg>
