<svg width="77" height="18" viewBox="0 0 77 18" fill="none" xmlns="http://www.w3.org/2000/svg">
<path d="M9.504 17H6.84L6.384 13.952H3.144L2.688 17H0.264L2.952 0.199999H6.816L9.504 17ZM3.48 11.672H6.024L4.752 3.176L3.48 11.672ZM10.3974 4.232C10.3974 2.872 10.7174 1.832 11.3574 1.112C12.0134 0.375999 12.9894 0.0079999 14.2854 0.0079999C15.5814 0.0079999 16.5494 0.375999 17.1894 1.112C17.8454 1.832 18.1734 2.872 18.1734 4.232V4.76H15.6774V4.064C15.6774 3.456 15.5574 3.032 15.3174 2.792C15.0934 2.536 14.7734 2.408 14.3574 2.408C13.9414 2.408 13.6134 2.536 13.3734 2.792C13.1494 3.032 13.0374 3.456 13.0374 4.064C13.0374 4.64 13.1654 5.152 13.4214 5.6C13.6774 6.032 13.9974 6.448 14.3814 6.848C14.7654 7.232 15.1734 7.624 15.6054 8.024C16.0534 8.408 16.4694 8.832 16.8534 9.296C17.2374 9.76 17.5574 10.288 17.8134 10.88C18.0694 11.472 18.1974 12.168 18.1974 12.968C18.1974 14.328 17.8614 15.376 17.1894 16.112C16.5334 16.832 15.5574 17.192 14.2614 17.192C12.9654 17.192 11.9814 16.832 11.3094 16.112C10.6534 15.376 10.3254 14.328 10.3254 12.968V11.936H12.8214V13.136C12.8214 13.744 12.9414 14.168 13.1814 14.408C13.4374 14.648 13.7734 14.768 14.1894 14.768C14.6054 14.768 14.9334 14.648 15.1734 14.408C15.4294 14.168 15.5574 13.744 15.5574 13.136C15.5574 12.56 15.4294 12.056 15.1734 11.624C14.9174 11.176 14.5974 10.76 14.2134 10.376C13.8294 9.976 13.4134 9.584 12.9654 9.2C12.5334 8.8 12.1254 8.368 11.7414 7.904C11.3574 7.44 11.0374 6.912 10.7814 6.32C10.5254 5.728 10.3974 5.032 10.3974 4.232ZM23.1006 4.232C23.1006 2.872 23.4206 1.832 24.0606 1.112C24.7166 0.375999 25.6926 0.0079999 26.9886 0.0079999C28.2846 0.0079999 29.2526 0.375999 29.8926 1.112C30.5486 1.832 30.8766 2.872 30.8766 4.232V4.76H28.3806V4.064C28.3806 3.456 28.2606 3.032 28.0206 2.792C27.7966 2.536 27.4766 2.408 27.0606 2.408C26.6446 2.408 26.3166 2.536 26.0766 2.792C25.8526 3.032 25.7406 3.456 25.7406 4.064C25.7406 4.64 25.8686 5.152 26.1246 5.6C26.3806 6.032 26.7006 6.448 27.0846 6.848C27.4686 7.232 27.8766 7.624 28.3086 8.024C28.7566 8.408 29.1726 8.832 29.5566 9.296C29.9406 9.76 30.2606 10.288 30.5166 10.88C30.7726 11.472 30.9006 12.168 30.9006 12.968C30.9006 14.328 30.5646 15.376 29.8926 16.112C29.2366 16.832 28.2606 17.192 26.9646 17.192C25.6686 17.192 24.6846 16.832 24.0126 16.112C23.3566 15.376 23.0286 14.328 23.0286 12.968V11.936H25.5246V13.136C25.5246 13.744 25.6446 14.168 25.8846 14.408C26.1406 14.648 26.4766 14.768 26.8926 14.768C27.3086 14.768 27.6366 14.648 27.8766 14.408C28.1326 14.168 28.2606 13.744 28.2606 13.136C28.2606 12.56 28.1326 12.056 27.8766 11.624C27.6206 11.176 27.3006 10.76 26.9166 10.376C26.5326 9.976 26.1166 9.584 25.6686 9.2C25.2366 8.8 24.8286 8.368 24.4446 7.904C24.0606 7.44 23.7406 6.912 23.4846 6.32C23.2286 5.728 23.1006 5.032 23.1006 4.232ZM35.0531 7.28H38.6771V9.68H35.0531V14.6H39.6131V17H32.4131V0.199999H39.6131V2.6H35.0531V7.28ZM43.8891 7.28H47.5131V9.68H43.8891V14.6H48.4491V17H41.2491V0.199999H48.4491V2.6H43.8891V7.28ZM52.437 4.832V17H50.061V0.199999H53.373L56.085 10.256V0.199999H58.437V17H55.725L52.437 4.832ZM64.0538 0.199999H66.6938V17H64.0538V0.199999ZM70.9761 4.832V17H68.6001V0.199999H71.9121L74.6241 10.256V0.199999H76.9761V17H74.2641L70.9761 4.832Z" fill="white"/>
</svg>
